<?xml version="1.0" standalone="no"?>
<!DOCTYPE svg PUBLIC "-//W3C//DTD SVG 20010904//EN"
 "http://www.w3.org/TR/2001/REC-SVG-20010904/DTD/svg10.dtd">
<svg version="1.0" xmlns="http://www.w3.org/2000/svg"
 width="640.000000pt" height="640.000000pt" viewBox="0 0 640.000000 640.000000"
 preserveAspectRatio="xMidYMid meet">
<metadata>
Created by potrace 1.14, written by Peter Selinger 2001-2017
</metadata>
<g transform="translate(0.000000,640.000000) scale(0.100000,-0.100000)"
fill="#000000" stroke="none">
<path d="M0 6290 c0 -74 4 -110 11 -110 6 0 9 6 6 14 -3 8 0 20 8 26 9 8 11
19 5 39 -4 16 -4 34 0 42 5 7 6 17 4 21 -3 4 2 8 10 8 8 0 20 8 25 18 10 16
10 15 11 -3 l1 -20 15 20 c41 53 40 55 -31 55 l-65 0 0 -110z"/>
<path d="M2038 6392 c-4 -10 -84 -72 -93 -72 -4 0 -5 7 -1 15 8 22 -12 18 -26
-5 -7 -11 -20 -20 -28 -20 -8 0 -28 -7 -44 -15 -35 -18 -37 -18 -30 -1 3 8 28
23 55 34 27 12 49 25 49 31 0 7 -8 7 -22 1 -13 -6 -35 -15 -50 -21 -16 -6 -28
-15 -28 -20 0 -4 -19 -13 -42 -20 -40 -10 -95 -59 -176 -154 -12 -15 -25 -25
-29 -22 -3 4 0 13 7 22 7 9 10 18 7 21 -3 3 -14 -7 -24 -23 -10 -15 -28 -39
-40 -53 -13 -14 -23 -28 -23 -33 0 -4 -11 -12 -24 -18 -25 -12 -106 -128 -150
-216 -23 -47 -81 -205 -108 -293 -6 -19 -20 -48 -31 -64 -13 -18 -22 -47 -23
-74 0 -24 -6 -47 -11 -50 -6 -4 -15 -16 -20 -27 -10 -19 -8 -39 12 -160 6 -37
5 -39 -9 -21 -24 30 -19 1 8 -48 13 -23 27 -58 31 -77 l7 -34 -21 22 c-12 12
-21 29 -21 37 0 8 -4 18 -10 21 -25 15 -6 -44 26 -85 20 -25 51 -78 70 -117
19 -40 38 -73 44 -73 14 0 12 17 -3 32 -8 7 -12 20 -9 30 4 17 6 17 33 1 16
-10 29 -21 29 -26 0 -5 7 -7 15 -3 8 3 30 -4 49 -15 33 -19 34 -22 31 -72 -2
-29 -11 -67 -20 -85 -31 -60 -10 -55 29 7 37 59 55 78 42 45 -3 -8 0 -22 8
-29 11 -11 13 -61 12 -245 -1 -128 3 -234 7 -237 11 -6 0 -117 -15 -155 -7
-19 -7 -61 1 -140 13 -134 31 -168 24 -44 -4 56 -2 86 5 86 14 0 22 -25 33
-95 23 -156 147 -613 181 -665 8 -12 8 -11 4 4 -14 43 -37 229 -56 452 -11
132 -27 282 -35 334 -25 166 -32 272 -23 360 5 47 9 145 11 219 1 97 5 135 15
139 6 2 12 16 12 31 0 22 7 30 38 41 20 8 43 13 49 12 8 -2 12 7 11 23 -1 14
-8 25 -15 25 -15 0 -16 9 -4 29 5 8 11 9 15 3 9 -16 45 -2 52 20 3 11 12 17
19 14 16 -6 51 26 60 54 3 11 11 20 16 20 5 0 22 13 37 30 27 27 32 29 81 23
43 -5 54 -3 65 12 9 13 15 15 20 7 10 -17 26 -15 26 3 0 11 11 15 43 15 23 0
52 3 64 6 14 4 28 -1 40 -13 22 -22 63 -36 63 -21 0 5 8 8 18 7 31 -3 43 1 37
11 -3 6 -1 10 4 10 6 0 11 -7 11 -16 0 -9 6 -14 13 -11 6 2 11 12 11 21 -1 10
6 16 20 15 11 0 16 -3 9 -5 -15 -7 -5 -34 12 -34 7 0 16 6 18 13 4 10 6 10 6
0 1 -7 8 -13 17 -13 10 0 14 -6 11 -14 -7 -18 46 -38 78 -30 14 3 29 -1 39
-12 13 -12 20 -14 29 -5 8 8 7 11 -4 11 -10 1 -9 3 4 11 9 5 21 8 26 4 5 -3
12 -1 16 5 9 14 65 -17 65 -36 0 -11 6 -14 23 -9 39 12 107 48 107 57 0 5 8 8
18 6 9 -2 16 2 15 9 -2 7 4 10 12 7 8 -3 47 5 87 19 40 14 88 28 107 32 19 4
48 20 65 36 17 16 44 34 61 40 16 6 42 17 57 25 14 8 33 11 42 8 9 -3 16 -1
16 5 0 17 28 13 39 -6 7 -13 12 -14 23 -6 9 8 19 9 28 3 20 -13 50 -12 50 1 0
5 -4 8 -8 5 -4 -2 -14 -1 -21 3 -9 6 -10 11 -2 15 5 4 19 -2 31 -14 11 -11 26
-20 33 -20 7 0 17 -4 23 -10 5 -5 21 -11 34 -14 14 -2 27 -5 30 -6 3 -2 9 -2
14 -1 4 1 19 -5 32 -14 13 -8 30 -15 37 -15 8 0 20 -7 27 -15 9 -11 16 -12 26
-4 10 8 21 3 45 -20 18 -17 38 -31 45 -31 8 0 14 -6 14 -12 0 -15 60 -58 79
-58 7 0 10 -3 8 -7 -5 -10 29 -43 36 -36 3 3 15 -16 27 -41 11 -26 25 -44 30
-41 10 6 44 -50 47 -80 9 -83 17 -121 27 -127 7 -5 7 -8 -2 -8 -10 0 -9 -4 3
-16 11 -11 15 -31 13 -61 -1 -37 2 -48 23 -64 22 -19 23 -20 3 -17 -26 4 -29
-7 -13 -54 7 -21 20 -38 31 -41 14 -4 18 -11 14 -25 -5 -13 -1 -22 10 -26 10
-4 14 -12 10 -22 -4 -9 -1 -23 5 -30 6 -8 9 -21 5 -29 -3 -9 3 -20 14 -27 11
-7 20 -18 20 -25 0 -19 41 -83 50 -78 5 3 11 -30 15 -72 4 -43 12 -83 17 -90
6 -7 7 -41 3 -80 -5 -64 -5 -66 9 -43 l15 25 1 -31 c0 -17 7 -37 15 -44 12
-10 15 -39 16 -139 0 -69 4 -147 8 -173 4 -27 4 -48 -1 -48 -4 0 -8 -4 -8 -10
0 -5 6 -7 13 -5 9 4 12 -16 12 -77 2 -189 5 -249 15 -243 6 3 10 30 10 58 0
29 5 70 11 92 6 22 12 48 13 59 1 10 10 24 19 31 9 7 17 17 17 24 0 6 11 11
25 11 17 0 29 9 40 30 19 37 20 109 1 124 -12 9 -12 18 1 61 11 37 16 105 17
255 2 131 7 215 14 233 19 45 34 243 37 482 1 121 6 256 10 301 6 66 4 95 -14
162 -11 45 -21 106 -21 135 0 50 -31 169 -50 192 -5 6 -18 39 -30 75 -31 92
-69 180 -91 212 -11 14 -19 34 -19 45 0 10 -20 43 -44 74 -24 31 -54 76 -67
100 -12 24 -36 62 -54 84 -18 22 -47 65 -64 95 -33 59 -91 123 -191 210 -35
30 -71 68 -80 83 -9 15 -43 43 -75 62 l-57 35 -362 0 -362 0 -30 -31 c-28 -30
-155 -136 -183 -153 -46 -29 74 90 159 156 l35 28 -124 0 c-92 0 -129 -4 -140
-14 -9 -7 -27 -17 -41 -21 -25 -8 -25 -8 -6 14 l19 21 -138 0 c-134 0 -140 -1
-178 -27 -21 -15 -43 -35 -48 -45 -5 -10 -16 -18 -25 -18 -8 0 -19 -11 -26
-24 -11 -25 -38 -43 -38 -26 0 6 4 10 10 10 5 0 12 11 16 24 3 15 28 40 60 62
30 21 54 39 54 42 0 10 -103 -8 -132 -23 -36 -18 -50 -12 -22 10 17 13 4 14
-123 15 -78 0 -143 -3 -145 -8z m782 -84 c-61 -54 -100 -81 -100 -70 0 13 132
123 139 116 3 -3 -14 -24 -39 -46z m123 28 c-11 -19 -143 -129 -149 -124 -6 7
132 138 146 138 6 0 8 -5 3 -14z m-253 -20 c0 -2 -7 -7 -16 -10 -8 -3 -12 -2
-9 4 6 10 25 14 25 6z m-355 -16 c-3 -5 -11 -10 -16 -10 -6 0 -7 5 -4 10 3 6
11 10 16 10 6 0 7 -4 4 -10z m745 0 c0 -5 -5 -10 -11 -10 -5 0 -7 5 -4 10 3 6
8 10 11 10 2 0 4 -4 4 -10z m-1220 -20 c0 -12 -41 -50 -54 -50 -5 0 3 14 19
30 31 33 35 35 35 20z m-77 -35 c-18 -25 -40 -35 -27 -12 14 24 27 37 36 37 5
0 1 -11 -9 -25z m1777 -25 c0 -5 -5 -10 -11 -10 -5 0 -7 5 -4 10 3 6 8 10 11
10 2 0 4 -4 4 -10z m-715 -39 c-3 -6 -11 -11 -17 -11 -6 0 -6 6 2 15 14 17 26
13 15 -4z m-1175 -51 c-14 -11 -33 -20 -42 -20 -9 0 -20 -4 -23 -10 -3 -5 -11
-10 -16 -10 -6 0 -4 6 3 13 27 25 64 46 83 46 18 1 18 -1 -5 -19z m1035 -65
c-27 -25 -54 -45 -60 -44 -5 0 8 15 30 33 22 19 45 39 50 45 6 5 15 10 20 10
6 0 -12 -20 -40 -44z m380 19 c-41 -34 -65 -47 -65 -35 0 14 62 61 80 61 9 -1
4 -10 -15 -26z m99 8 c6 -11 -91 -108 -100 -100 -5 6 20 47 55 91 15 18 36 22
45 9z m-129 -82 c-16 -16 -34 -30 -39 -30 -13 0 45 59 58 59 6 1 -3 -12 -19
-29z m115 -95 c-7 -8 -19 -15 -27 -15 -13 0 -13 3 -3 15 7 8 19 15 27 15 13 0
13 -3 3 -15z m-1833 -178 c-2 -7 -11 -39 -18 -72 -11 -48 -14 -54 -17 -31 -4
33 18 116 31 116 5 0 7 -6 4 -13z m-127 -408 c0 -76 -3 -100 -12 -97 -19 7
-25 55 -15 118 18 115 27 108 27 -21z m-57 -42 c3 -8 1 -20 -4 -28 -6 -10 -9
-7 -9 14 0 29 5 35 13 14z m47 -148 c0 -6 -4 -7 -10 -4 -5 3 -10 11 -10 16 0
6 5 7 10 4 6 -3 10 -11 10 -16z m845 -119 c3 -5 -1 -10 -10 -10 -9 0 -13 5
-10 10 3 6 8 10 10 10 2 0 7 -4 10 -10z m2535 -1314 c0 -8 -4 -18 -10 -21 -5
-3 -10 3 -10 14 0 12 5 21 10 21 6 0 10 -6 10 -14z m-52 -308 c-6 -18 -28 -21
-28 -4 0 9 7 16 16 16 9 0 14 -5 12 -12z"/>
<path d="M65 6310 c3 -5 8 -10 11 -10 2 0 4 5 4 10 0 6 -5 10 -11 10 -5 0 -7
-4 -4 -10z"/>
<path d="M1060 5210 c0 -5 5 -10 11 -10 5 0 7 5 4 10 -3 6 -8 10 -11 10 -2 0
-4 -4 -4 -10z"/>
<path d="M1090 5183 c0 -4 5 -15 10 -23 8 -13 10 -13 10 2 0 9 -4 20 -10 23
-5 3 -10 3 -10 -2z"/>
<path d="M1378 4743 c7 -3 16 -2 19 1 4 3 -2 6 -13 5 -11 0 -14 -3 -6 -6z"/>
<path d="M1931 4494 c0 -11 3 -14 6 -6 3 7 2 16 -1 19 -3 4 -6 -2 -5 -13z"/>
<path d="M1351 4354 c1 -43 4 -90 9 -104 4 -14 5 20 2 75 -6 121 -12 138 -11
29z"/>
<path d="M3860 4040 c-8 -4 -25 -12 -37 -18 -13 -7 -36 -12 -53 -12 -16 0 -30
-3 -30 -8 0 -4 -30 -7 -67 -7 -38 1 -72 -1 -77 -4 -5 -2 -21 -5 -35 -7 -14 -2
-51 -8 -81 -14 -30 -6 -68 -14 -85 -17 -16 -3 -43 -16 -60 -28 -35 -27 -117
-65 -139 -65 -23 0 -47 -30 -44 -54 3 -23 -25 -59 -55 -69 -13 -5 -16 -13 -12
-27 4 -11 2 -20 -4 -20 -7 0 -11 -27 -11 -69 0 -49 -4 -70 -14 -74 -23 -9 -40
-130 -26 -185 24 -92 53 -148 72 -136 4 3 8 -2 8 -10 0 -9 -5 -16 -10 -16 -6
0 -5 -8 2 -19 18 -29 35 -9 43 50 4 27 10 49 13 49 4 0 23 -4 42 -10 19 -5 56
-11 83 -13 37 -3 47 -1 47 11 0 13 3 13 18 -1 11 -10 35 -17 60 -17 22 0 44
-4 47 -10 3 -5 40 -10 81 -10 68 0 75 2 83 23 5 12 5 30 -1 40 -8 16 -4 21 16
18 4 -1 14 3 22 10 8 6 21 8 30 5 11 -4 18 1 21 14 5 17 11 19 40 14 30 -6 35
-3 40 15 3 13 11 20 19 17 25 -10 124 57 124 83 0 6 7 11 15 11 8 0 15 -4 15
-10 0 -5 -4 -10 -10 -10 -5 0 -10 -4 -10 -8 0 -13 68 -8 82 6 7 7 26 12 43 12
28 0 51 19 53 45 0 5 9 12 19 16 15 6 15 8 2 8 -18 1 -33 27 -24 42 8 12 -62
72 -94 81 -14 4 -44 12 -66 18 -22 7 -49 13 -60 15 -36 5 -55 17 -53 34 2 10
-3 15 -14 15 -10 -1 -18 2 -18 7 0 5 -10 9 -22 10 l-23 0 23 9 c12 5 22 15 22
22 0 8 5 6 11 -4 11 -19 64 -25 74 -8 3 6 18 10 33 10 15 0 35 7 45 14 10 8
27 12 37 9 22 -6 26 7 8 25 -9 9 -7 12 10 12 12 0 22 -4 22 -9 0 -4 11 -6 25
-3 19 3 23 8 15 16 -6 9 -6 16 3 25 9 10 8 15 -7 26 -14 11 -16 18 -8 28 9 10
6 17 -10 28 -11 8 -28 21 -37 30 -35 35 -138 65 -171 49z m-128 -296 c-5 -25
-8 -28 -27 -20 -13 5 -13 9 -3 26 15 24 34 20 30 -6z m-47 -24 c3 -6 -4 -10
-17 -10 -18 0 -20 2 -8 10 19 12 18 12 25 0z m130 -184 l30 -13 -47 -46 c-31
-30 -60 -48 -83 -53 -45 -8 -50 -3 -26 23 11 11 29 39 40 62 23 44 37 49 86
27z m-335 -58 c16 -22 30 -45 30 -50 0 -10 -77 0 -102 14 -26 13 -23 57 5 68
34 13 35 13 67 -32z m130 -128 c0 -5 -7 -10 -16 -10 -8 0 -12 5 -9 10 3 6 10
10 16 10 5 0 9 -4 9 -10z"/>
<path d="M1876 3884 c-29 -10 -42 -11 -47 -3 -10 16 -65 -4 -90 -33 -27 -31
-49 -82 -48 -110 0 -19 2 -20 7 -5 7 16 9 16 27 3 23 -17 39 -21 30 -7 -8 15
15 25 28 12 6 -6 21 -11 34 -11 13 0 23 -4 23 -9 0 -5 15 -9 33 -8 18 0 47 -7
66 -16 18 -9 55 -20 82 -23 27 -4 52 -11 55 -15 3 -5 10 -7 15 -4 5 4 9 0 9
-7 0 -7 3 -22 6 -34 5 -19 -1 -22 -55 -33 -78 -15 -161 -50 -183 -76 -19 -22
-24 -55 -8 -55 20 0 25 2 23 10 -1 4 9 18 23 31 26 24 64 33 64 15 0 -7 3 -7
8 1 5 8 13 9 22 3 8 -6 10 -10 5 -10 -6 0 -32 -18 -59 -40 -37 -31 -54 -38
-72 -34 -17 5 -24 2 -24 -9 0 -8 -5 -17 -12 -19 -7 -3 -9 -12 -5 -22 6 -16 16
-18 68 -13 60 5 61 5 101 -34 24 -24 51 -39 67 -40 14 -1 63 -2 109 -3 57 -1
85 -5 91 -14 7 -11 9 -11 14 2 7 18 37 22 37 5 0 -20 71 -81 89 -76 9 3 38 13
64 21 46 15 49 15 54 -3 3 -13 11 -17 29 -13 13 2 27 8 30 13 3 5 15 9 28 9
12 0 33 13 46 29 14 16 31 26 39 23 11 -4 12 1 7 21 -3 14 -2 29 4 32 5 3 10
14 9 23 0 11 -3 12 -6 5 -11 -29 -25 -11 -20 26 4 30 0 44 -14 60 -10 11 -19
29 -19 41 0 14 -7 20 -21 20 -11 0 -18 4 -15 9 6 10 -20 35 -47 44 -9 4 -20
15 -23 24 -3 10 -10 26 -15 36 -5 10 -7 33 -3 52 4 21 2 35 -4 35 -5 0 -15 14
-22 31 -8 18 -18 28 -26 25 -7 -3 -16 -1 -19 5 -4 5 1 12 9 15 9 3 13 11 10
16 -4 6 -10 5 -15 -3 -6 -11 -9 -10 -15 4 -3 9 -14 17 -24 17 -10 0 -25 6 -32
13 -7 8 -38 16 -68 19 -30 4 -77 14 -104 23 -51 17 -138 21 -238 11 -37 -4
-58 -3 -58 4 0 13 -6 12 -54 -6z m279 -446 c15 -24 38 -55 52 -69 23 -26 24
-27 4 -32 -47 -12 -191 43 -191 73 0 6 -1 13 -1 17 -2 10 72 52 92 53 9 0 29
-19 44 -42z m300 -2 c0 -20 -30 -45 -40 -34 -3 3 -3 18 1 32 7 31 39 32 39 2z
m-95 -146 c0 -5 -7 -10 -16 -10 -8 0 -12 5 -9 10 3 6 10 10 16 10 5 0 9 -4 9
-10z"/>
<path d="M3660 3289 c0 -5 5 -7 10 -4 6 3 10 8 10 11 0 2 -4 4 -10 4 -5 0 -10
-5 -10 -11z"/>
<path d="M3382 2738 c7 -15 15 -23 17 -17 2 6 -4 18 -13 27 -15 15 -15 15 -4
-10z"/>
<path d="M3235 2429 c-33 -11 -66 -23 -74 -25 -11 -4 -11 -8 3 -23 15 -16 15
-20 0 -49 -21 -43 -34 -49 -53 -24 -17 23 -17 23 -91 -25 -22 -15 -43 -20 -60
-17 -76 16 -116 28 -125 39 -12 14 -50 35 -64 35 -6 0 -11 -8 -11 -18 0 -10
-20 -39 -45 -64 -45 -47 -57 -78 -31 -78 8 0 21 -6 29 -14 10 -10 42 -14 128
-13 63 0 125 -4 138 -10 26 -10 100 6 126 27 7 6 45 14 86 20 169 21 208 29
233 45 14 10 26 21 26 25 0 12 -26 30 -33 23 -4 -3 -7 1 -7 9 0 9 -13 30 -29
47 -25 26 -29 38 -26 71 4 39 3 40 -28 40 -18 -1 -59 -10 -92 -21z"/>
<path d="M3540 2317 c0 -5 -4 -6 -8 -3 -13 8 -30 -8 -37 -34 -5 -20 2 -33 29
-63 33 -36 34 -39 18 -57 -9 -11 -35 -22 -61 -25 -100 -13 -173 -30 -178 -41
-2 -6 -13 -9 -24 -7 -12 4 -25 -2 -34 -13 -13 -17 -16 -17 -24 -4 -15 25 -81
13 -120 -21 -33 -29 -36 -29 -152 -29 -65 0 -120 4 -124 9 -3 6 -13 10 -23 10
-32 0 -184 41 -212 58 -30 17 -30 48 -1 69 12 9 4 13 -40 19 -38 5 -48 10 -35
15 18 6 18 7 2 13 -28 11 -36 8 -36 -12 0 -11 -5 -21 -12 -23 -7 -3 -14 -32
-16 -71 l-4 -66 38 -16 c23 -10 53 -14 72 -11 34 5 82 -10 82 -26 0 -4 14 -8
30 -8 19 0 30 5 30 14 0 18 33 30 59 21 37 -11 67 -16 181 -26 63 -5 120 -11
126 -14 6 -2 17 2 23 8 6 6 11 8 11 4 0 -4 10 -2 23 5 25 14 28 14 126 27 40
5 79 7 86 5 7 -3 16 -1 19 5 4 6 13 8 21 4 8 -3 15 0 15 6 0 6 9 11 20 11 11
0 20 -6 20 -14 0 -8 7 -17 16 -20 24 -9 82 4 88 20 8 20 45 17 82 -5 l31 -19
39 40 38 40 -17 30 c-22 38 -21 56 0 81 17 18 17 19 -2 33 -11 8 -39 33 -61
54 -32 31 -48 39 -73 37 -17 -1 -31 -6 -31 -10z"/>
<path d="M2620 2165 c0 -8 5 -15 10 -15 6 0 10 7 10 15 0 8 -4 15 -10 15 -5 0
-10 -7 -10 -15z"/>
<path d="M3075 1763 c-11 -3 -23 -10 -27 -17 -4 -6 -15 -12 -25 -13 -25 -3
-43 -8 -76 -21 -16 -7 -36 -12 -46 -12 -13 0 -18 -8 -18 -24 0 -22 5 -25 51
-32 128 -18 295 -3 318 30 9 13 -2 36 -18 36 -7 0 -18 8 -23 19 -6 11 -26 21
-50 25 -21 3 -45 8 -53 10 -7 2 -22 1 -33 -1z"/>
<path d="M3931 1685 c-19 -24 -38 -42 -42 -39 -12 7 -39 -7 -39 -21 0 -8 -9
-10 -25 -7 -19 3 -25 0 -25 -13 0 -9 -13 -30 -30 -47 -16 -16 -30 -31 -30 -34
0 -6 -39 -44 -46 -44 -4 0 -17 -10 -29 -22 -65 -67 -176 -132 -213 -125 -17 3
-22 1 -17 -10 4 -12 -1 -14 -29 -9 -21 4 -47 1 -68 -8 -18 -8 -54 -18 -80 -21
-26 -3 -54 -13 -62 -20 -12 -13 -15 -12 -20 1 -6 16 -46 11 -82 -11 -16 -10
-25 -10 -42 -1 -22 12 -177 14 -188 3 -11 -10 17 -47 35 -47 10 0 26 -11 35
-25 9 -14 24 -25 34 -25 16 1 16 1 0 14 -25 18 -23 21 13 24 17 1 39 7 49 12
35 19 230 13 230 -7 0 -3 -11 -16 -25 -29 -14 -13 -25 -21 -25 -18 0 2 -17
-12 -37 -32 -33 -33 -35 -38 -20 -49 9 -7 14 -15 10 -18 -3 -4 1 -7 10 -7 9 0
17 3 17 8 0 13 55 32 101 34 24 1 52 6 61 12 12 7 29 7 56 0 48 -13 82 -2 82
26 0 17 4 20 20 15 16 -5 20 -2 20 14 0 12 7 21 15 21 18 0 19 12 4 27 -8 8
-8 13 0 17 6 4 11 16 11 27 0 20 33 59 50 59 6 0 10 6 10 13 0 15 53 49 72 45
7 -2 13 5 13 14 0 26 11 31 78 37 4 1 7 6 7 12 0 6 -9 9 -19 6 -36 -9 -11 18
40 42 37 18 48 29 44 42 -3 10 1 19 10 23 8 3 15 12 15 20 0 8 12 28 26 45 14
17 26 39 27 50 0 11 11 24 24 30 13 6 23 17 23 26 0 25 -13 17 -49 -30z m-481
-559 c0 -3 -4 -8 -10 -11 -5 -3 -10 -1 -10 4 0 6 5 11 10 11 6 0 10 -2 10 -4z
m-263 -32 c-3 -3 -12 -4 -19 -1 -8 3 -5 6 6 6 11 1 17 -2 13 -5z"/>
<path d="M2306 1618 c8 -13 -15 -38 -29 -32 -7 2 -25 -7 -41 -21 -16 -14 -32
-25 -35 -25 -4 0 -30 -22 -58 -49 -40 -38 -53 -46 -55 -33 -2 9 6 25 17 35 20
17 20 17 -7 7 -15 -5 -37 -19 -48 -30 -14 -14 -28 -19 -42 -14 -14 4 -18 2
-14 -5 5 -7 -3 -11 -21 -10 -15 0 -22 3 -15 6 6 2 12 15 12 28 0 14 7 26 18
29 9 2 3 4 -13 3 -17 -1 -35 2 -42 6 -19 12 -40 -3 -40 -29 0 -17 5 -24 19
-24 10 0 17 -4 14 -9 -7 -10 -48 -2 -57 11 -3 5 -19 -2 -36 -16 -21 -18 -39
-24 -65 -22 -54 4 -80 29 -40 39 9 2 0 4 -21 4 -37 1 -68 13 -34 13 10 0 17 7
17 15 0 8 -4 15 -10 15 -5 0 -10 -3 -10 -7 0 -5 -24 -9 -54 -9 -62 -2 -115
-23 -58 -24 17 0 32 -4 32 -9 0 -16 -29 -33 -46 -27 -11 4 -14 1 -9 -13 5 -17
2 -18 -32 -10 -21 4 -63 11 -94 14 -52 6 -56 8 -51 28 5 21 5 21 -12 5 -21
-22 -18 -22 -89 -3 -31 8 -62 13 -69 11 -7 -3 -79 -7 -159 -10 -148 -6 -206
-13 -224 -26 -13 -9 -119 -27 -207 -35 -66 -6 -68 -7 -62 -31 7 -27 2 -29 -28
-13 -18 9 -19 8 -13 -10 5 -16 3 -20 -9 -15 -12 4 -16 0 -16 -16 0 -12 -10
-34 -21 -48 -20 -25 -21 -25 -15 -4 5 13 3 22 -3 22 -6 0 -16 -10 -22 -22 -7
-13 -18 -27 -25 -33 -7 -5 -14 -19 -16 -29 -1 -11 -9 -21 -17 -24 -9 -3 -12 0
-8 11 4 11 0 13 -14 10 -10 -3 -19 -9 -19 -13 0 -4 -11 -11 -25 -14 -13 -3
-30 -16 -36 -29 -7 -12 -21 -29 -31 -39 -13 -11 -15 -19 -8 -23 15 -9 -7 -36
-24 -29 -12 5 -151 -125 -142 -133 3 -3 -6 -15 -20 -28 l-24 -22 0 -345 0
-345 45 -32 c24 -17 50 -37 57 -44 7 -7 38 -32 69 -55 l56 -42 3086 0 3087 0
0 226 0 227 -42 61 c-22 33 -44 63 -47 66 -4 3 -23 28 -43 55 -20 28 -48 61
-63 75 -14 14 -33 39 -41 57 -43 89 -104 125 -254 148 -149 23 -166 28 -155
46 9 14 -41 29 -124 39 -56 6 -79 13 -90 28 -9 11 -32 23 -51 27 -19 3 -55 16
-80 27 -25 12 -74 24 -110 27 -36 4 -71 11 -79 15 -8 5 -31 13 -50 17 -72 15
-122 40 -163 80 -53 52 -100 73 -145 64 -26 -5 -33 -3 -33 10 0 9 -9 15 -25
15 -14 0 -38 9 -54 21 -37 28 -109 43 -127 28 -11 -9 -14 -8 -14 2 0 8 -27 26
-59 42 -60 28 -87 34 -76 17 4 -6 -5 -10 -19 -10 -14 0 -26 5 -26 10 0 6 -8
10 -17 10 -15 0 -16 2 -3 10 13 8 12 10 -3 10 -9 0 -35 11 -57 25 -22 14 -43
25 -47 25 -5 0 -26 14 -47 30 -69 53 -73 7 -5 -67 22 -24 39 -48 39 -55 0 -7
7 -26 16 -43 53 -100 63 -253 25 -375 -13 -41 -32 -87 -42 -102 -11 -14 -19
-32 -19 -40 0 -7 -9 -26 -20 -43 -12 -16 -28 -45 -37 -64 -9 -18 -27 -44 -40
-57 -13 -13 -23 -29 -23 -37 0 -7 -8 -22 -18 -33 -10 -10 -31 -39 -48 -64 -41
-62 -191 -180 -296 -234 -143 -73 -212 -91 -358 -90 -203 1 -330 37 -551 156
-127 69 -360 282 -405 373 -13 25 -21 45 -17 45 3 0 0 6 -6 13 -16 20 -77 144
-96 197 -28 77 -37 131 -37 235 -1 95 1 105 41 202 23 57 41 111 38 120 -3 14
-6 12 -15 -9 -12 -30 -26 -39 -15 -10 6 14 4 15 -9 4 -11 -9 -18 -9 -23 -3 -7
12 12 51 25 51 5 0 7 6 4 13 -3 8 -18 14 -34 14 -16 0 -27 -4 -24 -9z m-34
-80 c-7 -7 -12 -8 -12 -2 0 6 3 14 7 17 3 4 9 5 12 2 2 -3 -1 -11 -7 -17z
m-49 -68 c-3 -11 -9 -20 -14 -20 -5 0 -6 -6 -3 -14 3 -8 1 -17 -5 -21 -6 -3
-11 -17 -11 -29 0 -13 -7 -29 -15 -36 -20 -17 -20 8 -1 47 8 15 20 43 27 61
12 35 30 45 22 12z m-263 6 c0 -3 -4 -8 -10 -11 -5 -3 -10 -1 -10 4 0 6 5 11
10 11 6 0 10 -2 10 -4z m-270 -30 c0 -8 8 -17 17 -20 22 -9 4 -26 -28 -29 -13
0 -26 -4 -29 -7 -3 -4 -22 -5 -42 -2 -47 5 -52 34 -10 56 35 20 92 21 92 2z
m-550 -20 c0 -11 -19 -15 -25 -6 -3 5 1 10 9 10 9 0 16 -2 16 -4z m133 -16
c10 -10 6 -11 -16 -6 -19 4 -26 3 -22 -4 3 -5 -1 -10 -9 -10 -9 0 -16 5 -16
10 0 6 -10 15 -22 21 -18 7 -13 9 25 5 27 -2 54 -9 60 -16z m-330 -12 c6 -22
6 -22 -27 -5 -28 15 -27 23 3 23 11 0 22 -8 24 -18z m-129 -23 c-4 -9 0 -15 8
-15 24 0 39 -21 25 -35 -14 -13 -47 -16 -47 -3 0 4 -4 8 -10 8 -5 0 -10 -11
-10 -24 0 -19 -4 -22 -23 -19 -14 3 -31 -2 -39 -11 -9 -8 -18 -12 -22 -9 -3 3
1 11 9 17 13 9 11 11 -9 11 -21 0 -24 -4 -20 -22 7 -25 -3 -63 -16 -63 -5 0
-7 13 -4 29 4 16 1 32 -5 35 -8 5 -7 11 2 19 19 19 74 47 79 42 3 -3 17 8 31
25 29 32 61 41 51 15z m566 5 c0 -5 -2 -10 -4 -10 -3 0 -8 5 -11 10 -3 6 -1
10 4 10 6 0 11 -4 11 -10z m393 -8 c-10 -11 -22 -17 -26 -14 -5 2 -17 -4 -28
-14 -11 -10 -25 -19 -32 -20 -7 -2 -22 -6 -33 -9 -23 -7 -42 19 -22 31 16 10
120 42 141 43 16 1 16 0 0 -17z m-316 2 c-3 -3 -12 -4 -19 -1 -8 3 -5 6 6 6
11 1 17 -2 13 -5z m140 -76 c-3 -8 -6 -5 -6 6 -1 11 2 17 5 13 3 -3 4 -12 1
-19z m583 15 c-1 -10 -26 -43 -32 -43 -3 0 -3 11 0 25 4 22 33 37 32 18z m-40
-7 c0 -3 -4 -8 -10 -11 -5 -3 -10 -1 -10 4 0 6 5 11 10 11 6 0 10 -2 10 -4z
m2670 -46 c0 -5 -7 -10 -16 -10 -8 0 -12 5 -9 10 3 6 10 10 16 10 5 0 9 -4 9
-10z m-4160 -8 c0 -13 -36 -52 -42 -46 -9 8 16 54 30 54 6 0 12 -4 12 -8z
m1304 -16 c-3 -9 -10 -16 -15 -16 -6 0 -5 9 1 21 13 24 24 20 14 -5z m-1546
-73 c-2 -10 -11 -18 -21 -19 -11 -1 -12 0 -3 3 8 2 12 11 9 19 -3 8 0 14 7 14
6 0 10 -8 8 -17z m212 7 c0 -5 -4 -10 -10 -10 -5 0 -10 5 -10 10 0 6 5 10 10
10 6 0 10 -4 10 -10z m-293 -52 c-8 -23 -12 -28 -15 -16 -3 15 -7 16 -24 7
-16 -8 -22 -8 -29 2 -12 20 10 39 47 39 33 0 33 0 21 -32z m346 -25 c-7 -2
-19 -2 -25 0 -7 3 -2 5 12 5 14 0 19 -2 13 -5z m5067 -133 c0 -5 -7 -10 -15
-10 -8 0 -15 5 -15 10 0 6 7 10 15 10 8 0 15 -4 15 -10z"/>
<path d="M1654 1425 c26 -19 42 -19 26 0 -7 8 -20 15 -29 15 -13 -1 -13 -3 3
-15z"/>
<path d="M1607 1423 c-10 -9 -9 -23 2 -23 5 0 11 7 15 15 5 15 -5 20 -17 8z"/>
<path d="M2086 1561 c-4 -7 -5 -15 -2 -18 9 -9 19 4 14 18 -4 11 -6 11 -12 0z"/>
<path d="M1750 1510 c-21 -7 -17 -8 20 -9 32 0 41 2 30 9 -17 11 -16 11 -50 0z"/>
<path d="M2030 1490 c0 -5 5 -10 10 -10 6 0 10 5 10 10 0 6 -4 10 -10 10 -5 0
-10 -4 -10 -10z"/>
<path d="M3586 1273 c-8 -21 -8 -22 14 -16 28 8 33 20 11 26 -12 3 -22 -1 -25
-10z"/>
<path d="M3648 1273 c7 -3 16 -2 19 1 4 3 -2 6 -13 5 -11 0 -14 -3 -6 -6z"/>
<path d="M3994 1207 c-6 -18 2 -37 17 -37 10 0 7 35 -4 46 -4 4 -9 0 -13 -9z"/>
<path d="M3986 1123 c-4 -13 -15 -23 -24 -23 -13 0 -13 -2 4 -15 16 -12 17
-14 2 -15 -9 0 -19 -6 -22 -12 -5 -10 -7 -10 -12 0 -3 6 -14 12 -25 12 -14 0
-19 -7 -19 -30 0 -27 -31 -58 -52 -52 -5 1 -8 -3 -8 -8 0 -6 -8 -10 -17 -10
-15 0 -16 -2 -3 -10 13 -8 12 -10 -2 -10 -10 0 -18 -6 -18 -14 0 -8 -17 -23
-37 -33 -28 -15 -40 -29 -46 -54 -5 -22 -18 -40 -38 -51 -29 -17 -30 -17 -38
4 -5 15 -10 18 -15 9 -5 -7 -1 -20 7 -29 8 -9 12 -23 9 -31 -2 -7 1 -17 8 -21
15 -9 4 -30 -15 -30 -15 0 -30 -40 -27 -72 0 -12 -6 -18 -19 -18 -12 0 -19 -5
-16 -12 2 -7 10 -12 16 -10 6 1 11 -1 12 -5 0 -5 2 -19 3 -33 4 -33 -3 -50
-21 -50 -8 0 -13 -6 -10 -12 6 -21 41 -15 52 10 5 12 18 22 28 22 9 0 21 10
26 23 5 12 21 33 35 46 14 14 26 31 26 38 0 8 6 13 13 12 36 -4 45 3 53 43 8
37 13 44 39 48 17 3 30 10 30 15 1 6 6 19 12 30 12 21 13 26 13 50 0 8 7 15
15 15 8 0 15 5 15 11 0 6 8 8 18 5 14 -5 22 3 35 32 9 21 17 46 17 55 0 10 6
17 14 17 18 0 34 45 35 98 1 29 -3 42 -13 42 -7 0 -17 10 -23 23 l-10 22 -7
-22z"/>
<path d="M4030 1125 c0 -8 5 -15 10 -15 6 0 10 7 10 15 0 8 -4 15 -10 15 -5 0
-10 -7 -10 -15z"/>
<path d="M3085 1091 c-17 -7 -15 -9 13 -13 20 -3 31 -1 29 6 -5 14 -18 16 -42
7z"/>
<path d="M3375 1080 c-3 -5 1 -10 9 -10 9 0 16 5 16 10 0 6 -4 10 -9 10 -6 0
-13 -4 -16 -10z"/>
<path d="M2542 898 c-16 -16 14 -72 34 -64 9 3 25 6 37 7 12 1 3 5 -20 11 -44
9 -59 33 -25 40 15 3 15 4 1 10 -9 4 -21 2 -27 -4z"/>
<path d="M2620 821 c0 -6 7 -11 15 -11 9 0 15 -9 15 -25 0 -14 5 -25 10 -25 6
0 10 -9 10 -19 0 -10 6 -22 13 -25 6 -3 26 -15 42 -26 47 -30 103 -60 115 -60
16 0 12 40 -5 46 -8 4 -15 17 -15 30 0 19 -5 24 -26 24 -15 0 -32 -8 -39 -17
-11 -15 -15 -14 -39 10 -15 15 -26 35 -24 44 2 11 -2 17 -10 15 -9 -2 -11 4
-7 18 4 14 2 20 -9 20 -8 0 -21 3 -30 6 -9 3 -16 1 -16 -5z"/>
<path d="M2627 783 c-4 -3 -7 -11 -7 -17 0 -6 5 -5 12 2 6 6 9 14 7 17 -3 3
-9 2 -12 -2z"/>
<path d="M2501 764 c-2 -19 23 -34 39 -24 12 8 11 10 -7 10 -12 0 -24 6 -26
13 -4 7 -6 8 -6 1z"/>
<path d="M3572 530 c0 -14 2 -19 5 -12 2 6 2 18 0 25 -3 6 -5 1 -5 -13z"/>
</g>
</svg>
